
<svg xmlns="http://www.w3.org/2000/svg" version="1.1" xmlns:xlink="http://www.w3.org/1999/xlink" preserveAspectRatio="none" x="0px" y="0px" width="300px" height="300px" viewBox="0 0 300 300">
<defs>
<g id="Layer0_0_MEMBER_0_FILL">
<path fill="#FED198" stroke="none" d="
M 208.05 143
Q 184.2 138.05 173.05 126.9 161.9 115.75 156.95 91.9 153.1 73.5 150 28.35 146.85 73.5 143.05 91.9 138.05 115.75 126.9 126.9 115.75 138.05 91.9 143 73.5 146.85 28.35 149.95 73.5 153.1 91.9 156.9 115.75 161.9 126.9 173.05 138.05 184.2 143.05 208.05 146.85 226.45 150 271.6 153.1 226.45 156.95 208.05 161.9 184.2 173.05 173.05 184.2 161.9 208.05 156.9 226.45 153.1 271.6 149.95 226.45 146.85 208.05 143 Z"/>
</g>

<g id="Layer0_1_MEMBER_0_FILL">
<path fill="#FED198" stroke="none" d="
M 183.65 176.45
Q 173.9 161.55 173.9 150 173.9 138.4 183.65 123.5 191.2 111.95 213 86.95 188 108.75 176.45 116.3 161.55 126.05 150 126.05 138.4 126.05 123.5 116.3 111.95 108.75 86.95 86.95 108.75 111.95 116.3 123.5 126.05 138.4 126.05 150 126.05 161.55 116.3 176.45 108.75 188 86.95 213 111.95 191.2 123.5 183.65 138.4 173.9 150 173.9 161.55 173.9 176.45 183.65 188 191.2 213 213 191.2 188 183.65 176.45 Z"/>
</g>
</defs>

<g transform="matrix( 1, 0, 0, 1, 0.05,0.1) ">
<use xlink:href="#Layer0_0_MEMBER_0_FILL"/>
</g>

<g transform="matrix( 1, 0, 0, 1, 0.05,0.1) ">
<use xlink:href="#Layer0_1_MEMBER_0_FILL"/>
</g>
</svg>
